PathFileType	4	(X/Y/Z)	C:\Users\Biomechanik\SynologyDrive\AlexP\Athlete_03\Athlete_3_25_03_31\Walking_07\marker_experimental.trc
DataRate	CameraRate	NumFrames	NumMarkers	Units	OrigDataRate	OrigDataStartFrame	OrigNumFrames
200.000000	200.000000	4	53	mm	200.000000	168	450
Frame#	Time	GLAB			RFHD			LFHD			C7			T6			SPINMOL			SPINM2			SPINM3			T12			BELTOL			BELT2			BELT3			SACROL			SACR2			SACR3			LTHOL			LTH2			LTH3			LSHAOL			LSHA2			LSHA3			LHEE			LTOE			LM5			RTHOL			RTH2			RTH3			RSHAOL			RSHA2			RSHA3			RHEE			RTOE			RM5			STRN			XIPH			LACR			LUAOL			LUA2			LUA3			LLAOL			LLA2			LLA3			LWRR			LWRU			RACR			RUAOL			RUA2			RUA3			RLAOL			RLA2			RLA3			RWRR			RWRU			
		X1	Y1	Z1	X2	Y2	Z2	X3	Y3	Z3	X4	Y4	Z4	X5	Y5	Z5	X6	Y6	Z6	X7	Y7	Z7	X8	Y8	Z8	X9	Y9	Z9	X10	Y10	Z10	X11	Y11	Z11	X12	Y12	Z12	X13	Y13	Z13	X14	Y14	Z14	X15	Y15	Z15	X16	Y16	Z16	X17	Y17	Z17	X18	Y18	Z18	X19	Y19	Z19	X20	Y20	Z20	X21	Y21	Z21	X22	Y22	Z22	X23	Y23	Z23	X24	Y24	Z24	X25	Y25	Z25	X26	Y26	Z26	X27	Y27	Z27	X28	Y28	Z28	X29	Y29	Z29	X30	Y30	Z30	X31	Y31	Z31	X32	Y32	Z32	X33	Y33	Z33	X34	Y34	Z34	X35	Y35	Z35	X36	Y36	Z36	X37	Y37	Z37	X38	Y38	Z38	X39	Y39	Z39	X40	Y40	Z40	X41	Y41	Z41	X42	Y42	Z42	X43	Y43	Z43	X44	Y44	Z44	X45	Y45	Z45	X46	Y46	Z46	X47	Y47	Z47	X48	Y48	Z48	X49	Y49	Z49	X50	Y50	Z50	X51	Y51	Z51	X52	Y52	Z52	X53	Y53	Z53	

169	0.84	721.1774291992186	1606.25146484375	196.372756958008	669.8721313476561	1634.557373046875	259.1756286621095	680.4268798828124	1627.801635742188	121.1040573120118	495.530059814453	1446.68701171875	184.9223937988282	439.4074401855468	1276.034301757812	185.2689514160157	432.8221130371093	1235.229614257812	164.8565216064454	426.6015014648436	1228.468872070312	214.3600616455079	438.4331665039061	1171.524047851562	182.1093292236329	464.500274658203	1106.548095703125	186.094711303711	429.730499267578	1071.462646484375	171.0138244628907	428.1510620117186	1069.3720703125	221.5098419189454	425.3473815917968	1009.460815429688	192.2675170898438	442.8572998046874	960.9107055664062	175.6174926757813	445.707794189453	959.0809936523438	226.9885406494141	431.2794189453124	900.188232421875	200.1562652587891	544.1618041992188	679.830810546875	24.74089241027842	495.1655883789062	625.2875366210938	55.2062530517579	543.31884765625	620.6538696289062	41.9557991027833	525.5673828125	324.3187255859376	53.80270004272471	473.7139892578125	265.6296997070313	68.23044586181649	523.7512817382812	262.9609680175782	63.4651985168458	444.5086364746093	76.60417175292972	164.2504272460938	662.1515502929688	45.59483337402348	165.6613769531251	614.1300048828125	30.70272064208988	63.58600616455089	605.4255371093749	686.3958740234375	403.5330810546876	677.6116943359374	657.514404296875	419.1413574218751	637.8879394531249	634.260498046875	401.1165161132814	603.7286376953124	408.8764343261719	398.3365783691407	598.0557861328124	330.8717346191407	390.2774353027345	564.9620971679686	364.8704223632813	377.0112915039064	437.9776306152343	204.8554840087891	247.4827880859376	603.8220825195312	76.30236816406254	284.2339172363282	538.6680297851561	90.7919616699219	372.838592529297	665.4597167968749	1348.086791992188	193.8105621337892	681.9701538085936	1204.233154296875	197.1797027587892	578.3316650390624	1406.052856445312	14.38631439208995	584.4342651367186	1251.58251953125	-86.88500976562489	576.8421630859374	1189.070922851562	-106.9076080322265	621.6434936523436	1197.406005859375	-83.22998809814442	646.8242187499999	994.4256591796875	-132.424835205078	625.93115234375	920.1236572265625	-116.0583877563475	670.5899047851561	937.84228515625	-129.5434112548827	719.3797607421875	846.376220703125	-127.4234771728514	759.2275390625	863.201171875	-60.51250839233384	572.3713378906248	1408.51611328125	358.4534912109376	544.715881347656	1265.4658203125	462.078826904297	566.2438354492185	1203.873901367188	473.9660034179689	516.0031127929685	1209.955688476562	484.0587158203126	553.8328857421873	989.7554931640625	526.1011962890626	614.012268066406	945.2446899414062	554.1331176757814	573.2330322265623	929.6626586914062	530.1445312500001	620.7238769531249	854.09375	545.4194946289064	662.7437133789061	844.3694458007812	476.0888977050782	
170	0.845	727.9083251953124	1606.2890625	196.5058746337892	676.6265258789061	1634.551635742188	259.3584289550782	687.1755981445311	1628.001098632812	121.2711334228517	502.1389160156248	1446.940063476562	184.8491973876954	445.9104003906249	1276.297241210938	185.1345672607423	439.2681884765624	1235.490356445312	164.7265167236329	433.1492614746093	1228.730346679688	214.2406616210938	444.9100646972655	1171.783447265625	181.972625732422	470.9341735839843	1106.81591796875	186.0005645751954	435.9893798828124	1071.716918945312	171.1799926757813	434.5840759277343	1069.61962890625	221.6684875488282	431.6682128906249	1009.72119140625	192.4348297119141	449.0639038085936	961.1198120117188	175.9500274658204	452.1372680664061	959.344970703125	227.3454132080079	437.6648559570311	900.4019775390625	200.5718383789063	547.7037963867188	680.4283447265625	24.5535888671876	498.4274291992187	626.3222045898438	55.38861083984384	546.458740234375	621.2630615234375	41.84816360473643	526.8167724609375	324.8300781250001	53.82545852661143	474.7156066894531	266.3771362304688	68.30870819091805	524.7498168945312	263.4872436523438	63.55254745483408	444.8555603027343	77.36589050292972	164.4615783691407	662.3129272460938	45.49123001098637	165.7018890380861	614.1962280273438	30.73161697387699	63.65007400512707	614.6263427734374	686.9868774414062	403.5115966796876	687.2179565429686	658.6710205078125	417.8126525878907	647.3400268554686	635.1840209960938	400.6677551269532	616.1743774414061	406.2011108398438	397.1660461425782	612.8839721679686	328.0465393066407	388.8092041015626	578.5793457031249	361.0936889648438	376.0101928710939	455.7816467285156	197.1374664306641	246.8729858398438	626.3795166015625	74.83441925048832	283.5611572265626	560.8608398437499	86.91160583496097	372.2579040527345	671.9995727539061	1348.300170898438	193.6627807617189	688.3004760742186	1204.401123046875	196.7755584716798	584.9259033203124	1406.511962890625	14.33604621887218	591.8798217773436	1252.348754882812	-87.17289733886707	584.6263427734374	1189.821166992188	-107.2394256591796	629.3971557617186	1198.39892578125	-83.54943084716786	657.0163574218749	995.7708740234375	-132.6597137451171	637.322998046875	921.1881713867188	-116.098533630371	681.7184448242186	939.6166381835938	-129.4835815429686	732.0615234375	848.989501953125	-126.8359527587889	771.4630737304688	866.808349609375	-59.94038772582994	578.9553222656248	1408.59765625	358.3603515625001	550.7537841796873	1265.613525390625	461.9295654296876	572.0738525390623	1203.92138671875	473.8480224609376	521.8258056640623	1210.170043945312	483.8109436035157	558.344055175781	989.9427490234375	526.1119384765626	617.977355957031	945.034912109375	554.5988769531251	577.3657226562498	929.6945190429688	530.3170776367189	624.0956420898436	853.8040161132812	546.0191650390626	666.4738159179686	843.6619262695312	476.9685363769532	
171	0.85	734.6469116210936	1606.263305664062	196.6524353027345	683.3887329101561	1634.482177734375	259.5554809570314	693.9290771484374	1628.132934570312	121.4527740478517	508.7525329589842	1447.129028320312	184.795623779297	452.4131469726561	1276.49853515625	185.032211303711	445.7092285156249	1235.689575195312	164.6315155029298	439.6971130371093	1228.9326171875	214.1577606201173	451.3819580078124	1171.981323242188	181.8719177246095	477.3609924316405	1107.022583007812	185.9437713623048	442.2545776367186	1071.925048828125	171.3880004882813	441.0299072265624	1069.819458007812	221.8686676025391	437.9889526367186	1009.933898925781	192.6424407958985	455.2675476074218	961.2881469726562	176.3061065673829	458.5433044433593	959.5519409179688	227.7326049804688	444.0533447265624	900.5621948242188	200.9833374023438	551.3140258789062	680.9783325195312	24.36755180358897	501.7403869628906	627.29345703125	55.50399780273447	549.6558837890625	621.8251342773438	41.71587371826182	528.1233520507812	325.3165893554688	53.85225677490244	475.7680053710938	267.1025085449219	68.37110900878915	525.798828125	263.9900207519532	63.64193725585947	445.1905517578124	78.12388610839847	164.6734924316407	662.471435546875	45.38770294189457	165.7417907714845	614.26806640625	30.76358985900883	63.72049713134777	623.7396850585936	687.4994506835938	403.4568481445314	696.6929931640624	659.7100830078125	416.4533081054689	656.6755981445311	636.0147705078125	400.1747131347657	628.5624999999999	403.4287719726563	395.9648437500001	627.6763305664061	325.1899719238282	387.392059326172	592.1997680664061	357.2227172851563	374.987762451172	473.8585815429687	189.368637084961	246.3400115966798	648.94140625	73.42970275878911	282.944305419922	583.1262207031249	83.06727600097661	371.7345581054689	678.5480957031249	1348.438354492188	193.5337677001954	694.6565551757811	1204.497192382812	196.3931427001954	591.5284423828124	1406.898559570312	14.30878162384044	599.3140869140624	1253.0556640625	-87.43614196777332	592.3965454101561	1190.512451171875	-107.5390396118163	637.1436767578124	1199.333862304688	-83.84829711914051	667.1831054687499	997.0919189453125	-132.8771972656249	648.6839599609375	922.2473754882812	-116.1248092651366	692.8081054687499	941.3799438476562	-129.4018554687499	744.6761474609375	851.607666015625	-126.2127990722655	783.6153564453125	870.4229125976562	-59.34013748168931	585.5479736328123	1408.614135742188	358.2869567871095	556.8078002929685	1265.697998046875	461.7969360351564	577.9180908203123	1203.908935546875	473.7509765625001	527.6647338867185	1210.325805664062	483.5847473144532	562.8900146484373	990.0789794921875	526.1373291015626	621.9807128906248	944.7861328125	555.0671997070314	581.5455322265623	929.6787719726562	530.5010986328126	627.5104980468749	853.4757690429688	546.6192626953126	670.2482910156249	842.9271850585938	477.8491516113282	
172	0.855	741.3936157226561	1606.1728515625	196.8126068115236	690.1591796874999	1634.347778320312	259.7667236328126	700.6876220703124	1628.195434570312	121.64900970459	515.3714599609374	1447.251342773438	184.7615356445313	458.917510986328	1276.635498046875	184.9622192382813	452.1475219726561	1235.82470703125	164.5717926025391	446.2469787597655	1229.07275390625	214.1117553710938	457.8508911132811	1172.115112304688	181.8074645996095	483.7831726074218	1107.165771484375	185.9234161376954	448.5272216796874	1072.085815429688	171.6348419189454	447.4899291992186	1069.970092773438	222.1074829101563	444.3114318847655	1010.097534179688	192.887664794922	461.4730224609374	961.4176635742188	176.6826629638673	464.9297485351561	959.704345703125	228.1468658447266	450.4410400390624	900.672607421875	201.388656616211	554.9925537109375	681.4776000976562	24.18179321289073	505.1030273437499	628.2000122070312	55.5535545349122	552.910400390625	622.3369750976562	41.56024932861338	529.4775390625	325.7763977050782	53.88394927978526	476.8621826171875	267.8056945800782	68.42721557617196	526.8882446289062	264.4675903320313	63.7335090637208	445.5133972167968	78.87383270263675	164.8870239257813	662.6268920898438	45.28580093383793	165.7793884277345	614.3435668945312	30.7985935211182	63.79621887207043	632.7607421874999	687.9266357421875	403.3626098632814	706.0356445312499	660.6240234375	415.0664367675782	665.8949584960936	636.7420043945312	399.6313476562501	640.8887329101561	400.5702209472657	394.735809326172	642.4241943359374	322.3159484863282	386.0316162109376	605.8196411132811	353.2736511230469	373.9470825195314	492.2052307128906	181.5839385986328	245.8800659179688	671.4930419921875	72.10330200195317	282.3933715820314	605.4480590820311	79.28720092773442	371.2752075195314	685.1062011718749	1348.5	193.4230804443361	701.0385131835936	1204.519897460938	196.0318603515626	598.1384277343749	1407.211669921875	14.30415725708019	606.7363281249999	1253.701416015625	-87.67409515380848	600.1531982421874	1191.141845703125	-107.8024215698241	644.8839721679686	1200.209838867188	-84.12528228759754	677.3254394531249	998.3883056640625	-133.0753326416014	660.0126342773438	923.3005981445312	-116.1392517089842	703.8585815429686	943.1309204101562	-129.2977142333983	757.2213134765625	854.2280883789062	-125.5562820434569	795.6793212890625	874.0388793945312	-58.71079254150376	592.1500244140623	1408.564086914062	358.2330017089845	562.8780517578123	1265.716796875	461.6809997558595	583.7767333984373	1203.835815429688	473.6750793457032	533.520080566406	1210.421020507812	483.3792724609376	567.473937988281	990.1633911132812	526.1779174804689	626.0273437499998	944.4968872070312	555.5366210937501	585.775939941406	929.61376953125	530.6976928710939	630.9728393554686	853.1073608398438	547.2194213867189	674.0686035156249	842.1625366210938	478.7292480468751	
